<svg width="500" height="500" viewBox="0 0 500 500" fill="none" xmlns="http://www.w3.org/2000/svg">
<g filter="url(#filter0_d_79_1254)">
<path d="M83.4 285.72C63.67 244.39 58.87 193.16 78.04 150.72C95.27 112.55 133.58 87.63 174.4 81.78C223.57 74.78 260.96 94.51 280.53 140.46C289.53 161.66 294.24 187.71 311.16 204.51C333.45 226.62 365.16 207.94 391.66 215.75C422.02 224.7 427.46 260.45 424.26 287.52C416.38 354.06 350.39 381.85 291.34 389.3C227.08 397.42 157.15 378.39 112.6 329.67C100.772 316.525 90.9342 301.718 83.4 285.72Z" fill="#407BFF"/>
<path opacity="0.9" d="M83.4 285.72C63.67 244.39 58.87 193.16 78.04 150.72C95.27 112.55 133.58 87.63 174.4 81.78C223.57 74.78 260.96 94.51 280.53 140.46C289.53 161.66 294.24 187.71 311.16 204.51C333.45 226.62 365.16 207.94 391.66 215.75C422.02 224.7 427.46 260.45 424.26 287.52C416.38 354.06 350.39 381.85 291.34 389.3C227.08 397.42 157.15 378.39 112.6 329.67C100.772 316.525 90.9342 301.718 83.4 285.72Z" fill="white"/>
<path d="M250 427.56C357.083 427.56 443.89 422.492 443.89 416.24C443.89 409.988 357.083 404.92 250 404.92C142.918 404.92 56.1101 409.988 56.1101 416.24C56.1101 422.492 142.918 427.56 250 427.56Z" fill="#F5F5F5"/>
<path d="M90.5499 379.14C90.5499 378.84 89.5499 349.14 84.7399 344.49C80.1199 340.01 74.7999 344.33 74.5699 344.49L73.9299 343.72C73.9899 343.67 80.1699 338.63 85.4299 343.72C90.5199 348.66 91.5099 377.81 91.5499 379.05L90.5499 379.14Z" fill="#407BFF"/>
<path d="M90.9998 385C90.8598 383.54 87.6899 349.26 100.62 334.41L101.38 335.07C88.6998 349.58 91.9298 384.54 91.9998 384.89L90.9998 385Z" fill="#407BFF"/>
<path d="M90.7298 381.25L89.7298 381.18C89.7298 380.78 92.2598 341.07 82.8298 332.41L83.5098 331.67C93.2798 340.66 90.8398 379.59 90.7298 381.25Z" fill="#407BFF"/>
<path d="M92 381.22H91C91 380.12 91.31 354.29 98.69 350.06C99.4007 349.601 100.211 349.319 101.053 349.237C101.895 349.155 102.744 349.276 103.53 349.59C108.01 351.45 110.22 359.38 110.31 359.71L109.31 359.98C109.31 359.9 107.14 352.18 103.12 350.52C102.471 350.256 101.766 350.156 101.069 350.227C100.372 350.299 99.7025 350.54 99.12 350.93C92.27 354.86 92 381 92 381.22Z" fill="#407BFF"/>
<path d="M89.1098 381.24L88.1098 381.18C88.1098 380.98 89.2098 360.87 83.7998 353.8C82.4998 352.12 81.1098 351.31 79.6398 351.42C76.1398 351.66 73.1798 356.82 73.1598 356.87L72.2798 356.38C72.4198 356.15 75.5298 350.7 79.5698 350.38C81.3898 350.25 83.0798 351.18 84.5698 353.16C90.2398 360.56 89.1598 380.4 89.1098 381.24Z" fill="#407BFF"/>
<path d="M90.06 384C89.92 382 86.51 336 92.53 327.82L93.33 328.42C87.53 336.27 91.03 383.42 91.06 383.92L90.06 384Z" fill="#407BFF"/>
<path d="M105.08 354.36C105.08 354.36 101.49 355.69 102.56 358.82C103.63 361.95 115 367.1 115 367.1C115 367.1 119.76 362.73 115.39 355.63C111.02 348.53 105.18 352.12 105.08 354.36Z" fill="#407BFF"/>
<path opacity="0.2" d="M105.08 354.36C105.08 354.36 101.49 355.69 102.56 358.82C103.63 361.95 115 367.1 115 367.1C115 367.1 119.76 362.73 115.39 355.63C111.02 348.53 105.18 352.12 105.08 354.36Z" fill="white"/>
<path d="M89.4498 348.4C89.4498 348.4 93.2798 348.24 93.4498 351.54C93.6198 354.84 85.1998 364 85.1998 364C85.1998 364 79.1198 361.81 80.4198 353.57C81.7198 345.33 88.4898 346.37 89.4498 348.4Z" fill="#407BFF"/>
<path opacity="0.2" d="M89.4498 348.4C89.4498 348.4 93.2798 348.24 93.4498 351.54C93.6198 354.84 85.1998 364 85.1998 364C85.1998 364 79.1198 361.81 80.4198 353.57C81.7198 345.33 88.4898 346.37 89.4498 348.4Z" fill="white"/>
<path d="M86.1999 332.6C86.1999 332.6 88.7599 332.32 88.5499 330.77C88.3399 329.22 78.6199 325.21 72.8899 331.68C72.8899 331.68 76.5599 337.99 81.8899 338.07C87.2199 338.15 86.1999 332.6 86.1999 332.6Z" fill="#407BFF"/>
<path opacity="0.2" d="M86.1999 332.6C86.1999 332.6 88.7599 332.32 88.5499 330.77C88.3399 329.22 78.6199 325.21 72.8899 331.68C72.8899 331.68 76.5599 337.99 81.8899 338.07C87.2199 338.15 86.1999 332.6 86.1999 332.6Z" fill="white"/>
<path d="M90.9999 328.82C90.9999 328.82 88.6899 329.94 87.9999 328.51C87.3099 327.08 93.4899 318.51 101.78 321C101.78 321 102 328.3 97.5399 331.18C93.0799 334.06 90.9999 328.82 90.9999 328.82Z" fill="#407BFF"/>
<path opacity="0.2" d="M90.9999 328.82C90.9999 328.82 88.6899 329.94 87.9999 328.51C87.3099 327.08 93.4899 318.51 101.78 321C101.78 321 102 328.3 97.5399 331.18C93.0799 334.06 90.9999 328.82 90.9999 328.82Z" fill="white"/>
<path d="M78.8699 353.1C78.8699 353.1 80.6299 351.68 78.7299 350.98C76.8299 350.28 67.4899 350.49 67.3999 359.73C67.3999 359.73 78.2699 361.54 79.6099 358.02C80.9499 354.5 78.8699 353.1 78.8699 353.1Z" fill="#407BFF"/>
<path opacity="0.2" d="M78.8699 353.1C78.8699 353.1 80.6299 351.68 78.7299 350.98C76.8299 350.28 67.4899 350.49 67.3999 359.73C67.3999 359.73 78.2699 361.54 79.6099 358.02C80.9499 354.5 78.8699 353.1 78.8699 353.1Z" fill="white"/>
<path d="M101 332.37C101 332.37 99.23 330.94 101.14 330.25C103.05 329.56 112.37 329.75 112.47 339C112.47 339 101.6 340.8 100.25 337.28C98.9 333.76 101 332.37 101 332.37Z" fill="#407BFF"/>
<path opacity="0.2" d="M101 332.37C101 332.37 99.23 330.94 101.14 330.25C103.05 329.56 112.37 329.75 112.47 339C112.47 339 101.6 340.8 100.25 337.28C98.9 333.76 101 332.37 101 332.37Z" fill="white"/>
<path d="M95.2899 339.81C95.2899 339.81 95.1299 338.08 96.5299 338.76C97.9299 339.44 102.79 344.69 97.7499 349.67C97.7499 349.67 90.9599 344.67 92.1799 342.02C93.3999 339.37 95.2899 339.81 95.2899 339.81Z" fill="#407BFF"/>
<path opacity="0.2" d="M95.2899 339.81C95.2899 339.81 95.1299 338.08 96.5299 338.76C97.9299 339.44 102.79 344.69 97.7499 349.67C97.7499 349.67 90.9599 344.67 92.1799 342.02C93.3999 339.37 95.2899 339.81 95.2899 339.81Z" fill="white"/>
<path d="M77.2899 342.28C77.2899 342.28 78.3499 340.9 76.7999 340.73C75.2499 340.56 68.3499 342.4 69.9999 349.3C69.9999 349.3 78.4199 348.67 78.7799 345.8C79.1399 342.93 77.2899 342.28 77.2899 342.28Z" fill="#407BFF"/>
<path opacity="0.2" d="M77.2899 342.28C77.2899 342.28 78.3499 340.9 76.7999 340.73C75.2499 340.56 68.3499 342.4 69.9999 349.3C69.9999 349.3 78.4199 348.67 78.7799 345.8C79.1399 342.93 77.2899 342.28 77.2899 342.28Z" fill="white"/>
<path d="M105.76 406.84H76.85L73.73 375.19H108.87L105.76 406.84Z" fill="#407BFF"/>
<path opacity="0.5" d="M105.76 406.84H76.85L73.73 375.19H108.87L105.76 406.84Z" fill="white"/>
<path d="M110.42 371.7H72.1899V378.68H110.42V371.7Z" fill="#407BFF"/>
<path opacity="0.2" d="M110.42 371.7H72.1899V378.68H110.42V371.7Z" fill="white"/>
<path d="M340.02 406.84L340.08 406.47L341.77 386.69H348.98L343.83 406.84" fill="#263238"/>
<path d="M406.74 406.84L406.68 406.47L404.98 386.69H397.78L402.93 406.84" fill="#263238"/>
<path d="M330.52 406.84L330.58 406.47L333.86 386.69H341.06L334.33 406.84" fill="#263238"/>
<path d="M416.24 406.84L416.17 406.47L412.9 386.69H405.7L412.43 406.84" fill="#263238"/>
<g opacity="0.2">
<path d="M330.52 406.84L330.58 406.47L333.86 386.69H341.06L334.33 406.84" fill="white"/>
<path d="M416.24 406.84L416.17 406.47L412.9 386.69H405.7L412.43 406.84" fill="white"/>
</g>
<path d="M416.78 268.29H329.99C327.792 268.29 326.01 270.072 326.01 272.27V387.12C326.01 389.318 327.792 391.1 329.99 391.1H416.78C418.978 391.1 420.76 389.318 420.76 387.12V272.27C420.76 270.072 418.978 268.29 416.78 268.29Z" fill="#407BFF"/>
<path opacity="0.4" d="M416.78 268.29H329.99C327.792 268.29 326.01 270.072 326.01 272.27V387.12C326.01 389.318 327.792 391.1 329.99 391.1H416.78C418.978 391.1 420.76 389.318 420.76 387.12V272.27C420.76 270.072 418.978 268.29 416.78 268.29Z" fill="white"/>
<path opacity="0.5" d="M416.89 295.07H329.87V339.4H416.89V295.07Z" fill="white"/>
<path opacity="0.5" d="M416.89 342.35H329.87V386.68H416.89V342.35Z" fill="white"/>
<path opacity="0.5" d="M416.89 272.7H329.87V292.11H416.89V272.7Z" fill="white"/>
<path opacity="0.5" d="M380.5 275.93H366.26C365.833 275.928 365.415 275.807 365.053 275.581C364.691 275.355 364.399 275.033 364.21 274.65L363.26 272.7H383.5L382.5 274.65C382.317 275.027 382.034 275.346 381.681 275.572C381.328 275.798 380.919 275.922 380.5 275.93Z" fill="black"/>
<path opacity="0.5" d="M380.5 298.29H366.26C365.833 298.29 365.414 298.17 365.051 297.944C364.689 297.718 364.397 297.394 364.21 297.01L363.26 295.07H383.5L382.5 297.01C382.319 297.389 382.036 297.709 381.683 297.935C381.329 298.161 380.92 298.284 380.5 298.29Z" fill="black"/>
<path opacity="0.5" d="M380.5 345.58H366.26C365.833 345.58 365.414 345.46 365.051 345.234C364.689 345.008 364.397 344.684 364.21 344.3L363.26 342.35H383.5L382.5 344.3C382.319 344.679 382.036 344.999 381.683 345.225C381.329 345.451 380.92 345.574 380.5 345.58Z" fill="black"/>
<path d="M398.69 254.74L406.21 268.29H396.85L398.69 254.74Z" fill="#407BFF"/>
<path opacity="0.2" d="M398.69 254.74L406.21 268.29H396.85L398.69 254.74Z" fill="black"/>
<path d="M401.2 268.29H383.5L389.04 245.36H406.74L401.2 268.29Z" fill="#407BFF"/>
<path opacity="0.5" d="M385.94 266.47L390.6 247.18H404.3L399.64 266.47H385.94Z" fill="white"/>
<path d="M349.41 257.85L345.02 268.29H356.76L349.41 257.85Z" fill="#407BFF"/>
<path d="M373.38 268.29H350.9L345.62 252H368.11L373.38 268.29Z" fill="#407BFF"/>
<path opacity="0.2" d="M373.38 268.29H350.9L345.62 252H368.11L373.38 268.29Z" fill="white"/>
<path opacity="0.5" d="M352.14 265.94L348.38 254.35H366.87L370.62 265.94H352.14Z" fill="white"/>
<path d="M273.23 145.79H129.56C123.816 145.79 119.16 150.446 119.16 156.19V411.22C119.16 416.964 123.816 421.62 129.56 421.62H273.23C278.974 421.62 283.63 416.964 283.63 411.22V156.19C283.63 150.446 278.974 145.79 273.23 145.79Z" fill="#263238"/>
<path d="M278.08 155.7V411.18C278.08 411.713 277.974 412.241 277.767 412.732C277.56 413.223 277.258 413.668 276.877 414.041C276.496 414.413 276.044 414.706 275.548 414.902C275.053 415.097 274.523 415.192 273.99 415.18H128.36C127.875 415.187 127.394 415.096 126.946 414.912C126.497 414.729 126.09 414.457 125.749 414.112C125.409 413.767 125.141 413.358 124.962 412.907C124.784 412.456 124.698 411.975 124.71 411.49V155.37C124.691 154.942 124.757 154.515 124.905 154.112C125.053 153.71 125.278 153.341 125.57 153.027C125.861 152.712 126.211 152.459 126.601 152.281C126.991 152.103 127.412 152.004 127.84 151.99H164.25C164.757 152 165.25 152.161 165.667 152.451C166.083 152.741 166.404 153.148 166.59 153.62L168.1 157.34C168.285 157.812 168.606 158.218 169.023 158.507C169.44 158.795 169.933 158.953 170.44 158.96H232.44C232.945 158.957 233.438 158.804 233.855 158.518C234.272 158.233 234.594 157.83 234.78 157.36L236.29 153.63C236.474 153.156 236.794 152.747 237.211 152.455C237.628 152.163 238.121 152.001 238.63 151.99H274.52C275.481 152.019 276.392 152.424 277.058 153.117C277.724 153.811 278.091 154.739 278.08 155.7Z" fill="#407BFF"/>
<path opacity="0.3" d="M278.08 155.7V411.18C278.08 411.713 277.974 412.241 277.767 412.732C277.56 413.223 277.258 413.668 276.877 414.041C276.496 414.413 276.044 414.706 275.548 414.902C275.053 415.097 274.523 415.192 273.99 415.18H128.36C127.875 415.187 127.394 415.096 126.946 414.912C126.497 414.729 126.09 414.457 125.749 414.112C125.409 413.767 125.141 413.358 124.962 412.907C124.784 412.456 124.698 411.975 124.71 411.49V155.37C124.691 154.942 124.757 154.515 124.905 154.112C125.053 153.71 125.278 153.341 125.57 153.027C125.861 152.712 126.211 152.459 126.601 152.281C126.991 152.103 127.412 152.004 127.84 151.99H164.25C164.757 152 165.25 152.161 165.667 152.451C166.083 152.741 166.404 153.148 166.59 153.62L168.1 157.34C168.285 157.812 168.606 158.218 169.023 158.507C169.44 158.795 169.933 158.953 170.44 158.96H232.44C232.945 158.957 233.438 158.804 233.855 158.518C234.272 158.233 234.594 157.83 234.78 157.36L236.29 153.63C236.474 153.156 236.794 152.747 237.211 152.455C237.628 152.163 238.121 152.001 238.63 151.99H274.52C275.481 152.019 276.392 152.424 277.058 153.117C277.724 153.811 278.091 154.739 278.08 155.7Z" fill="black"/>
<path opacity="0.6" d="M278.08 169.2H124.71V396.41H278.08V169.2Z" fill="white"/>
<path opacity="0.6" d="M141.62 163.09H143.51V160.56H141.62V163.09Z" fill="white"/>
<path opacity="0.6" d="M138.53 163.09H140.42V159.72H138.53V163.09Z" fill="white"/>
<path opacity="0.6" d="M135.44 163.09H137.33V158.88H135.44V163.09Z" fill="white"/>
<path opacity="0.6" d="M132.35 163.09H134.24V158.04H132.35V163.09Z" fill="white"/>
<path opacity="0.6" d="M260.72 159.64H259.6V162.17H260.72V159.64Z" fill="white"/>
<path opacity="0.6" d="M261.49 163.09H270.44V158.72H261.49V163.09Z" fill="white"/>
<path opacity="0.6" d="M201.37 152.35C201.37 152.767 201.246 153.175 201.014 153.522C200.782 153.869 200.453 154.14 200.067 154.299C199.682 154.459 199.258 154.501 198.848 154.419C198.439 154.338 198.063 154.137 197.768 153.842C197.473 153.547 197.272 153.171 197.19 152.762C197.109 152.352 197.151 151.928 197.311 151.543C197.47 151.157 197.741 150.827 198.088 150.596C198.435 150.364 198.843 150.24 199.26 150.24C199.537 150.239 199.812 150.292 200.069 150.398C200.326 150.503 200.559 150.659 200.755 150.855C200.951 151.051 201.106 151.284 201.212 151.541C201.318 151.798 201.371 152.073 201.37 152.35Z" fill="white"/>
<path opacity="0.6" d="M205.63 152.35C205.63 152.617 205.551 152.878 205.402 153.1C205.254 153.322 205.043 153.495 204.797 153.597C204.55 153.699 204.278 153.726 204.017 153.674C203.755 153.622 203.514 153.493 203.325 153.305C203.137 153.116 203.008 152.875 202.956 152.613C202.904 152.351 202.931 152.08 203.033 151.833C203.135 151.587 203.308 151.376 203.53 151.228C203.752 151.079 204.013 151 204.28 151C204.638 151 204.981 151.142 205.235 151.395C205.488 151.649 205.63 151.992 205.63 152.35Z" fill="white"/>
<path d="M278.08 169.2H124.71V195.43H278.08V169.2Z" fill="#407BFF"/>
<path d="M271.57 184.46V182.46H269.79C269.675 181.952 269.472 181.468 269.19 181.03L270.45 179.77L269 178.32L267.74 179.58C267.301 179.302 266.817 179.103 266.31 178.99V177.21H264.31V179C263.803 179.115 263.32 179.314 262.88 179.59L261.62 178.33L260.2 179.76L261.46 181.02C261.177 181.458 260.974 181.942 260.86 182.45H259.08V184.45H260.86C260.976 184.955 261.179 185.435 261.46 185.87L260.2 187.13L261.62 188.56L262.88 187.3C263.321 187.575 263.804 187.777 264.31 187.9V189.67H266.31V187.9C266.816 187.779 267.299 187.577 267.74 187.3L269 188.56L270.42 187.13L269.16 185.87C269.441 185.435 269.644 184.955 269.76 184.45L271.57 184.46ZM265.33 185.31C264.96 185.31 264.598 185.2 264.29 184.994C263.982 184.788 263.742 184.496 263.601 184.153C263.46 183.811 263.424 183.435 263.497 183.071C263.57 182.708 263.749 182.375 264.011 182.114C264.274 181.853 264.608 181.676 264.971 181.605C265.335 181.534 265.711 181.572 266.052 181.715C266.394 181.858 266.685 182.1 266.89 182.408C267.094 182.717 267.202 183.08 267.2 183.45C267.2 183.695 267.151 183.938 267.057 184.164C266.963 184.39 266.825 184.596 266.652 184.769C266.478 184.942 266.272 185.078 266.045 185.171C265.818 185.264 265.575 185.311 265.33 185.31Z" fill="white"/>
<path d="M137.97 177.94L131.22 184.35H133.31V188.95H142.63V184.35H144.71L137.97 177.94Z" fill="white"/>
<path opacity="0.4" d="M229.89 239.47C229.896 245.108 228.229 250.622 225.101 255.313C221.972 260.004 217.523 263.662 212.315 265.823C207.107 267.984 201.375 268.552 195.845 267.455C190.314 266.358 185.233 263.645 181.244 259.66C177.256 255.674 174.539 250.595 173.439 245.065C172.338 239.535 172.902 233.803 175.059 228.594C177.217 223.384 180.872 218.932 185.56 215.8C190.249 212.669 195.761 210.998 201.4 211C205.141 210.993 208.847 211.725 212.306 213.153C215.764 214.582 218.906 216.678 221.553 219.323C224.2 221.968 226.298 225.108 227.729 228.566C229.159 232.023 229.894 235.728 229.89 239.47Z" fill="black"/>
<path opacity="0.8" d="M222.94 258.13C220.264 261.218 216.956 263.695 213.24 265.392C209.524 267.089 205.486 267.968 201.4 267.968C197.314 267.968 193.276 267.089 189.56 265.392C185.843 263.695 182.535 261.218 179.86 258.13C180.892 254.43 182.859 251.057 185.572 248.337C188.285 245.617 191.652 243.641 195.35 242.6C193.373 241.299 191.868 239.396 191.058 237.172C190.249 234.948 190.178 232.522 190.857 230.255C191.536 227.988 192.928 226 194.826 224.586C196.725 223.173 199.028 222.41 201.395 222.41C203.762 222.41 206.065 223.173 207.964 224.586C209.862 226 211.254 227.988 211.933 230.255C212.611 232.522 212.541 234.948 211.732 237.172C210.922 239.396 209.417 241.299 207.44 242.6C211.138 243.643 214.506 245.619 217.221 248.338C219.935 251.058 221.904 254.43 222.94 258.13Z" fill="white"/>
<g opacity="0.5">
<path d="M147.9 284.88V285.4H144.85V281.2H147.85V281.72H145.49V283H147.6V283.51H145.49V284.87L147.9 284.88Z" fill="black"/>
<path d="M148.46 283.5H150.08V284H148.46V283.5Z" fill="black"/>
<path d="M156.24 283.57V285.4H155.67V283.64C155.67 283.01 155.37 282.71 154.85 282.71C154.711 282.696 154.57 282.715 154.439 282.763C154.308 282.812 154.19 282.89 154.094 282.991C153.997 283.092 153.925 283.214 153.883 283.347C153.841 283.481 153.829 283.622 153.85 283.76V285.4H153.28V283.64C153.28 283.01 152.98 282.71 152.45 282.71C152.311 282.696 152.17 282.715 152.039 282.763C151.908 282.812 151.79 282.89 151.694 282.991C151.597 283.092 151.525 283.214 151.483 283.347C151.441 283.481 151.429 283.622 151.45 283.76V285.4H151V282.22H151.55V282.7C151.674 282.53 151.839 282.394 152.029 282.305C152.22 282.216 152.43 282.176 152.64 282.19C152.862 282.174 153.083 282.221 153.28 282.325C153.476 282.429 153.639 282.587 153.75 282.78C153.888 282.588 154.073 282.434 154.285 282.331C154.498 282.228 154.733 282.18 154.97 282.19C155.149 282.181 155.327 282.212 155.493 282.279C155.658 282.347 155.807 282.451 155.928 282.582C156.049 282.714 156.14 282.871 156.194 283.041C156.248 283.212 156.263 283.393 156.24 283.57Z" fill="black"/>
<path d="M159.83 283.48V285.4H159.28V285C159.163 285.152 159.011 285.274 158.837 285.354C158.663 285.434 158.471 285.47 158.28 285.46C157.56 285.46 157.1 285.07 157.1 284.52C157.1 283.97 157.43 283.59 158.38 283.59H159.29V283.48C159.29 282.99 159.01 282.71 158.44 282.71C158.078 282.708 157.726 282.828 157.44 283.05L157.2 282.62C157.577 282.338 158.039 282.194 158.51 282.21C159.33 282.19 159.83 282.61 159.83 283.48ZM159.25 284.43V284H158.36C157.79 284 157.63 284.23 157.63 284.5C157.63 284.77 157.89 285.01 158.33 285.01C158.525 285.022 158.718 284.973 158.883 284.868C159.049 284.764 159.177 284.611 159.25 284.43Z" fill="black"/>
<path d="M160.79 281.24C160.79 281.189 160.8 281.139 160.82 281.092C160.839 281.045 160.868 281.003 160.905 280.968C160.941 280.932 160.984 280.905 161.031 280.886C161.079 280.868 161.129 280.859 161.18 280.86C161.254 280.862 161.327 280.886 161.388 280.929C161.449 280.972 161.496 281.032 161.524 281.101C161.551 281.171 161.557 281.247 161.541 281.32C161.525 281.393 161.489 281.46 161.435 281.512C161.381 281.564 161.314 281.599 161.24 281.613C161.167 281.627 161.091 281.619 161.022 281.59C160.953 281.561 160.895 281.512 160.853 281.45C160.812 281.388 160.79 281.315 160.79 281.24ZM160.9 282.24H161.47V285.42H160.9V282.24Z" fill="black"/>
<path d="M162.57 281H163.14V285.45H162.57V281Z" fill="black"/>
</g>
<g opacity="0.8">
<path d="M251.05 306.19H151.74C149.746 306.19 147.833 305.398 146.423 303.987C145.012 302.577 144.22 300.664 144.22 298.67C144.22 296.676 145.012 294.763 146.423 293.353C147.833 291.942 149.746 291.15 151.74 291.15H251.05C253.044 291.15 254.957 291.942 256.367 293.353C257.778 294.763 258.57 296.676 258.57 298.67C258.57 300.664 257.778 302.577 256.367 303.987C254.957 305.398 253.044 306.19 251.05 306.19Z" fill="white"/>
</g>
<g opacity="0.5">
<path d="M148.24 319.67C148.24 320.58 147.58 321.13 146.49 321.13H145.49V322.4H144.89V318.2H146.53C147.58 318.2 148.24 318.75 148.24 319.67ZM147.64 319.67C147.64 319.07 147.24 318.72 146.47 318.72H145.47V320.61H146.47C147.24 320.61 147.64 320.26 147.64 319.67Z" fill="black"/>
<path d="M151.53 320.48V322.4H151V322C150.884 322.153 150.732 322.275 150.557 322.355C150.383 322.435 150.191 322.471 150 322.46C149.28 322.46 148.82 322.07 148.82 321.52C148.82 320.97 149.15 320.59 150.1 320.59H151V320.48C151 319.99 150.72 319.71 150.15 319.71C149.788 319.708 149.436 319.828 149.15 320.05L148.91 319.62C149.291 319.338 149.756 319.194 150.23 319.21C151 319.19 151.53 319.61 151.53 320.48ZM150.95 321.43V321H150.06C149.49 321 149.33 321.23 149.33 321.5C149.33 321.77 149.6 322.01 150.03 322.01C150.233 322.035 150.439 321.992 150.614 321.887C150.79 321.781 150.926 321.621 151 321.43H150.95Z" fill="black"/>
<path d="M152.2 322.06L152.44 321.61C152.769 321.827 153.156 321.942 153.55 321.94C154.08 321.94 154.31 321.78 154.31 321.51C154.31 320.79 152.31 321.41 152.31 320.14C152.31 319.58 152.82 319.19 153.63 319.19C154.035 319.184 154.435 319.284 154.79 319.48L154.54 319.93C154.267 319.761 153.951 319.674 153.63 319.68C153.12 319.68 152.88 319.87 152.88 320.12C152.88 320.87 154.88 320.26 154.88 321.49C154.88 322.07 154.35 322.44 153.51 322.44C153.045 322.451 152.587 322.318 152.2 322.06Z" fill="black"/>
<path d="M155.2 322.06L155.44 321.61C155.774 321.826 156.163 321.94 156.56 321.94C157.09 321.94 157.31 321.78 157.31 321.51C157.31 320.79 155.31 321.41 155.31 320.14C155.31 319.58 155.82 319.19 156.64 319.19C157.045 319.185 157.445 319.285 157.8 319.48L157.55 319.93C157.273 319.762 156.954 319.676 156.63 319.68C156.13 319.68 155.88 319.87 155.88 320.12C155.88 320.87 157.88 320.26 157.88 321.49C157.88 322.07 157.35 322.44 156.5 322.44C156.038 322.447 155.585 322.315 155.2 322.06Z" fill="black"/>
<path d="M163.36 319.22L162.17 322.4H161.62L160.7 320L159.77 322.41H159.22L158 319.22H158.54L159.47 321.75L160.47 319.22H161L162 321.76L162.94 319.22H163.36Z" fill="black"/>
<path d="M163.56 320.81C163.556 320.483 163.649 320.162 163.828 319.888C164.007 319.614 164.263 319.399 164.565 319.271C164.866 319.143 165.198 319.108 165.519 319.169C165.841 319.231 166.137 319.386 166.369 319.616C166.602 319.846 166.761 320.14 166.827 320.461C166.892 320.781 166.86 321.114 166.736 321.417C166.612 321.719 166.4 321.978 166.129 322.16C165.857 322.343 165.537 322.44 165.21 322.44C164.992 322.45 164.775 322.414 164.572 322.336C164.369 322.258 164.184 322.139 164.029 321.986C163.874 321.833 163.752 321.649 163.671 321.447C163.591 321.244 163.553 321.028 163.56 320.81ZM166.28 320.81C166.28 320.669 166.252 320.53 166.198 320.401C166.145 320.271 166.066 320.153 165.967 320.053C165.867 319.954 165.749 319.875 165.619 319.821C165.49 319.768 165.35 319.74 165.21 319.74C165.069 319.74 164.93 319.768 164.8 319.821C164.671 319.875 164.553 319.954 164.453 320.053C164.354 320.153 164.275 320.271 164.221 320.401C164.168 320.53 164.14 320.669 164.14 320.81C164.14 320.951 164.168 321.09 164.221 321.219C164.275 321.349 164.354 321.467 164.453 321.567C164.553 321.666 164.671 321.745 164.8 321.799C164.93 321.852 165.069 321.88 165.21 321.88C165.35 321.88 165.49 321.852 165.619 321.799C165.749 321.745 165.867 321.666 165.967 321.567C166.066 321.467 166.145 321.349 166.198 321.219C166.252 321.09 166.28 320.951 166.28 320.81Z" fill="black"/>
<path d="M169.37 319.19V319.75H169.24C169.102 319.75 168.965 319.778 168.838 319.833C168.711 319.888 168.597 319.969 168.503 320.071C168.409 320.172 168.337 320.292 168.292 320.423C168.247 320.553 168.229 320.692 168.24 320.83V322.41H167.66V319.23H168.21V319.76C168.33 319.566 168.503 319.41 168.708 319.309C168.913 319.208 169.143 319.167 169.37 319.19Z" fill="black"/>
<path d="M173.05 318V322.45H172.5V321.95C172.368 322.126 172.195 322.267 171.997 322.361C171.798 322.455 171.579 322.5 171.36 322.49C170.951 322.458 170.569 322.273 170.291 321.972C170.012 321.67 169.857 321.275 169.857 320.865C169.857 320.455 170.012 320.06 170.291 319.758C170.569 319.457 170.951 319.272 171.36 319.24C171.572 319.232 171.783 319.274 171.976 319.362C172.169 319.451 172.338 319.584 172.47 319.75V318H173.05ZM172.48 320.86C172.47 320.651 172.399 320.449 172.276 320.28C172.152 320.111 171.982 319.981 171.786 319.908C171.59 319.834 171.376 319.82 171.172 319.867C170.968 319.914 170.782 320.019 170.637 320.171C170.493 320.322 170.396 320.513 170.358 320.719C170.321 320.925 170.345 321.138 170.427 321.33C170.509 321.523 170.646 321.687 170.821 321.803C170.996 321.918 171.2 321.98 171.41 321.98C171.563 321.993 171.716 321.971 171.859 321.915C172.002 321.859 172.13 321.772 172.233 321.659C172.336 321.545 172.412 321.41 172.455 321.263C172.498 321.116 172.506 320.961 172.48 320.81V320.86Z" fill="black"/>
</g>
<g opacity="0.8">
<path d="M251.05 343.19H151.74C149.746 343.19 147.833 342.398 146.423 340.987C145.012 339.577 144.22 337.664 144.22 335.67C144.22 333.676 145.012 331.763 146.423 330.353C147.833 328.942 149.746 328.15 151.74 328.15H251.05C253.044 328.15 254.957 328.942 256.367 330.353C257.778 331.763 258.57 333.676 258.57 335.67C258.57 337.664 257.778 339.577 256.367 340.987C254.957 342.398 253.044 343.19 251.05 343.19Z" fill="white"/>
</g>
<path d="M226.05 374.19H176.74C175.752 374.19 174.775 373.995 173.862 373.618C172.95 373.24 172.121 372.686 171.423 371.987C170.724 371.289 170.17 370.46 169.792 369.548C169.414 368.635 169.22 367.658 169.22 366.67C169.22 365.682 169.414 364.705 169.792 363.792C170.17 362.88 170.724 362.051 171.423 361.353C172.121 360.654 172.95 360.1 173.862 359.722C174.775 359.344 175.752 359.15 176.74 359.15H226.05C228.044 359.15 229.957 359.942 231.367 361.353C232.778 362.763 233.57 364.676 233.57 366.67C233.57 368.664 232.778 370.577 231.367 371.987C229.957 373.398 228.044 374.19 226.05 374.19Z" fill="#407BFF"/>
<path d="M190.677 364.821C190.641 364.516 190.495 364.279 190.238 364.11C189.981 363.942 189.666 363.857 189.293 363.857C189.02 363.857 188.781 363.902 188.576 363.99C188.374 364.078 188.215 364.2 188.101 364.354C187.989 364.509 187.932 364.684 187.932 364.881C187.932 365.045 187.971 365.187 188.05 365.305C188.13 365.422 188.232 365.519 188.357 365.597C188.481 365.673 188.612 365.737 188.748 365.787C188.885 365.835 189.01 365.874 189.124 365.904L189.75 366.073C189.911 366.115 190.089 366.173 190.286 366.247C190.485 366.322 190.674 366.423 190.855 366.551C191.038 366.678 191.188 366.84 191.307 367.039C191.425 367.238 191.484 367.481 191.484 367.77C191.484 368.104 191.397 368.404 191.222 368.673C191.05 368.942 190.797 369.156 190.464 369.315C190.133 369.473 189.73 369.552 189.257 369.552C188.815 369.552 188.433 369.481 188.11 369.339C187.789 369.196 187.536 368.997 187.351 368.743C187.169 368.488 187.065 368.192 187.041 367.855H187.812C187.832 368.087 187.91 368.28 188.047 368.433C188.185 368.583 188.36 368.695 188.57 368.77C188.783 368.842 189.012 368.878 189.257 368.878C189.542 368.878 189.798 368.832 190.024 368.74C190.251 368.645 190.431 368.515 190.563 368.348C190.696 368.18 190.762 367.983 190.762 367.758C190.762 367.554 190.705 367.387 190.59 367.259C190.476 367.13 190.325 367.026 190.139 366.946C189.952 366.865 189.75 366.795 189.534 366.735L188.775 366.518C188.294 366.38 187.912 366.182 187.631 365.925C187.35 365.668 187.21 365.332 187.21 364.917C187.21 364.572 187.303 364.271 187.49 364.014C187.679 363.755 187.931 363.554 188.248 363.412C188.567 363.267 188.924 363.195 189.317 363.195C189.714 363.195 190.067 363.266 190.376 363.409C190.685 363.549 190.93 363.742 191.111 363.987C191.293 364.232 191.39 364.51 191.4 364.821H190.677ZM192.615 369.444V364.821H193.325V369.444H192.615ZM192.976 364.05C192.838 364.05 192.718 364.003 192.618 363.909C192.52 363.814 192.471 363.701 192.471 363.568C192.471 363.436 192.52 363.323 192.618 363.228C192.718 363.134 192.838 363.087 192.976 363.087C193.115 363.087 193.233 363.134 193.331 363.228C193.432 363.323 193.482 363.436 193.482 363.568C193.482 363.701 193.432 363.814 193.331 363.909C193.233 364.003 193.115 364.05 192.976 364.05ZM196.493 371.274C196.15 371.274 195.855 371.23 195.608 371.142C195.361 371.055 195.155 370.941 194.991 370.798C194.828 370.658 194.699 370.507 194.602 370.347L195.168 369.95C195.233 370.034 195.314 370.13 195.412 370.239C195.51 370.349 195.645 370.444 195.815 370.525C195.988 370.607 196.214 370.648 196.493 370.648C196.866 370.648 197.174 370.558 197.417 370.377C197.66 370.196 197.781 369.913 197.781 369.528V368.589H197.721C197.669 368.673 197.594 368.778 197.498 368.902C197.404 369.025 197.267 369.134 197.089 369.23C196.912 369.325 196.673 369.372 196.372 369.372C195.999 369.372 195.664 369.283 195.367 369.107C195.072 368.93 194.838 368.673 194.666 368.336C194.495 367.999 194.41 367.59 194.41 367.108C194.41 366.635 194.493 366.222 194.66 365.871C194.826 365.518 195.058 365.245 195.355 365.052C195.652 364.858 195.995 364.76 196.384 364.76C196.685 364.76 196.924 364.811 197.101 364.911C197.279 365.009 197.416 365.122 197.51 365.248C197.606 365.372 197.681 365.475 197.733 365.555H197.805V364.821H198.491V369.576C198.491 369.974 198.401 370.297 198.22 370.546C198.042 370.796 197.801 370.98 197.498 371.096C197.197 371.215 196.862 371.274 196.493 371.274ZM196.469 368.734C196.754 368.734 196.994 368.668 197.191 368.538C197.388 368.408 197.537 368.22 197.639 367.975C197.742 367.73 197.793 367.437 197.793 367.096C197.793 366.763 197.743 366.469 197.642 366.214C197.542 365.959 197.394 365.76 197.197 365.615C197 365.471 196.758 365.399 196.469 365.399C196.168 365.399 195.917 365.475 195.716 365.627C195.517 365.78 195.368 365.984 195.268 366.241C195.169 366.498 195.12 366.783 195.12 367.096C195.12 367.417 195.17 367.701 195.271 367.948C195.373 368.193 195.523 368.385 195.722 368.526C195.923 368.664 196.172 368.734 196.469 368.734ZM200.502 366.663V369.444H199.792V364.821H200.478V365.543H200.538C200.646 365.308 200.811 365.12 201.032 364.977C201.252 364.833 201.537 364.76 201.887 364.76C202.2 364.76 202.473 364.825 202.708 364.953C202.943 365.079 203.126 365.272 203.256 365.531C203.387 365.788 203.452 366.113 203.452 366.506V369.444H202.741V366.554C202.741 366.191 202.647 365.908 202.458 365.706C202.27 365.501 202.011 365.399 201.682 365.399C201.455 365.399 201.252 365.448 201.074 365.546C200.897 365.644 200.758 365.788 200.655 365.976C200.553 366.165 200.502 366.394 200.502 366.663ZM207.134 369.444V364.821H207.844V369.444H207.134ZM207.495 364.05C207.356 364.05 207.237 364.003 207.137 363.909C207.038 363.814 206.989 363.701 206.989 363.568C206.989 363.436 207.038 363.323 207.137 363.228C207.237 363.134 207.356 363.087 207.495 363.087C207.633 363.087 207.752 363.134 207.85 363.228C207.95 363.323 208.001 363.436 208.001 363.568C208.001 363.701 207.95 363.814 207.85 363.909C207.752 364.003 207.633 364.05 207.495 364.05ZM209.855 366.663V369.444H209.145V364.821H209.831V365.543H209.892C210 365.308 210.164 365.12 210.385 364.977C210.606 364.833 210.891 364.76 211.24 364.76C211.553 364.76 211.827 364.825 212.062 364.953C212.296 365.079 212.479 365.272 212.61 365.531C212.74 365.788 212.805 366.113 212.805 366.506V369.444H212.095V366.554C212.095 366.191 212.001 365.908 211.812 365.706C211.623 365.501 211.364 365.399 211.035 365.399C210.809 365.399 210.606 365.448 210.427 365.546C210.251 365.644 210.111 365.788 210.009 365.976C209.907 366.165 209.855 366.394 209.855 366.663Z" fill="white"/>
<path d="M380.1 184.92L337.16 184.52C336.18 184.507 335.246 184.106 334.562 183.405C333.878 182.703 333.499 181.76 333.51 180.78L333.92 167.83C333.925 167.345 334.026 166.867 334.216 166.421C334.406 165.975 334.683 165.571 335.029 165.232C335.375 164.893 335.785 164.626 336.235 164.446C336.685 164.265 337.165 164.175 337.65 164.18L380.65 164.59C381.63 164.603 382.564 165.004 383.248 165.705C383.932 166.407 384.311 167.35 384.3 168.33L383.89 181.28C383.885 181.769 383.782 182.253 383.588 182.702C383.394 183.151 383.112 183.557 382.759 183.896C382.406 184.235 381.989 184.5 381.533 184.676C381.076 184.852 380.589 184.935 380.1 184.92Z" fill="#407BFF"/>
<path d="M358 181.65C358 181.65 352.56 193.65 340.66 197.32C340.66 197.32 347.26 193.62 346.92 181.01L358 181.65Z" fill="#407BFF"/>
<path d="M344.65 174.4L345.65 174.96L345.19 175.73L344.19 175.11V176.25H343.31V175.11L342.31 175.73L341.86 174.96L342.86 174.4L341.86 173.84L342.31 173.07L343.31 173.69V172.54H344.19V173.69L345.19 173.07L345.65 173.84L344.65 174.4Z" fill="white"/>
<path d="M350.79 174.4L351.79 174.96L351.33 175.73L350.33 175.11V176.25H349.45V175.11L348.45 175.73L348 175L349 174.44L348 173.88L348.46 173.11L349.46 173.73V172.58H350.34V173.73L351.34 173.11L351.8 173.88L350.79 174.4Z" fill="white"/>
<path d="M356.94 174.4L357.94 174.96L357.48 175.73L356.48 175.11V176.25H355.59V175.11L354.59 175.73L354.14 174.96L355.14 174.4L354.14 173.84L354.59 173.07L355.59 173.69V172.54H356.48V173.69L357.48 173.07L357.94 173.84L356.94 174.4Z" fill="white"/>
<path d="M363.08 174.4L364.08 174.96L363.62 175.73L362.62 175.11V176.25H361.74V175.11L360.74 175.73L360.29 174.96L361.29 174.4L360.29 173.84L360.74 173.07L361.74 173.69V172.54H362.62V173.69L363.62 173.07L364.08 173.84L363.08 174.4Z" fill="white"/>
<path d="M369.22 174.4L370.22 174.96L369.76 175.73L368.76 175.11V176.25H367.88V175.11L366.88 175.73L366.42 174.96L367.42 174.4L366.42 173.84L366.88 173.07L367.88 173.69V172.54H368.76V173.69L369.76 173.07L370.22 173.84L369.22 174.4Z" fill="white"/>
<path d="M375.37 174.4L376.37 174.96L375.91 175.73L374.91 175.11V176.25H374V175.11L373 175.73L372.55 174.96L373.55 174.4L372.55 173.84L373 173.07L374 173.69V172.54H374.89V173.69L375.89 173.07L376.35 173.84L375.37 174.4Z" fill="white"/>
<path d="M312.14 206C317.86 206.89 323.41 224.51 325.82 226C328.23 227.49 326.16 209.5 326.16 209.5L330.74 208.89C330.74 208.89 336.16 236.01 328.25 235.81C322.25 235.66 315.05 225.59 313.25 220.46L312.14 206Z" fill="#EBB376"/>
<path opacity="0.1" d="M328.25 235.74C324.6 235.65 320.51 231.9 317.47 227.82C315.732 225.554 314.325 223.052 313.29 220.39L312.7 212.99L312.14 205.99C317.86 206.88 323.41 224.5 325.82 225.99C328.23 227.48 326.16 209.49 326.16 209.49L330.74 208.88C330.74 208.88 336.16 235.94 328.25 235.74Z" fill="black"/>
<path opacity="0.2" d="M317.47 227.82C315.732 225.554 314.325 223.052 313.29 220.39L312.7 212.99C312.7 212.99 318.94 219.27 317.47 227.82Z" fill="black"/>
<path d="M291.08 169.56C291.08 169.56 280.89 169.44 281.38 183.45C281.87 197.46 291.67 197.65 288.38 201.7C291.303 202.939 294.445 203.578 297.62 203.578C300.795 203.578 303.937 202.939 306.86 201.7C306.86 201.7 305.05 200.99 305.91 198.42C306.77 195.85 311.49 192.17 311.91 186.75C312.33 181.33 301.62 168.16 291.08 169.56Z" fill="#263238"/>
<path d="M301.15 196.38C301.15 196.38 314.15 193.97 311.98 181.61C310.2 171.48 305.47 168.23 301.15 166.78C299.289 166.153 297.275 166.152 295.413 166.777C293.552 167.401 291.946 168.618 290.84 170.24C290.84 170.24 282.02 167.74 283.55 182.24C285.08 196.74 294.66 203 301.15 196.38Z" fill="#263238"/>
<path d="M324.85 403.49L319.07 400.53L321.17 391.89L323.11 383.98L330.39 386.36L327.46 395.43L324.85 403.49Z" fill="#EBB376"/>
<path d="M317.46 399.17C317.8 398.53 325.56 403.03 325.56 403.03C325.56 403.03 327.99 410.5 332.22 414.03C336.45 417.56 332.34 419.08 326.99 416.42L313.75 409.82C310 407.91 313.94 405.85 317.46 399.17Z" fill="#263238"/>
<path d="M328.19 406.83C327.349 406.15 326.594 405.371 325.94 404.51C325.935 404.487 325.935 404.463 325.94 404.44C325.935 404.41 325.935 404.38 325.94 404.35C325.935 404.33 325.935 404.31 325.94 404.29C325.948 404.254 325.969 404.222 326 404.2C326.07 404.13 327.67 402.6 329 402.69C329.196 402.703 329.386 402.758 329.559 402.851C329.731 402.945 329.882 403.074 330 403.23C330.126 403.347 330.213 403.501 330.247 403.669C330.281 403.838 330.261 404.013 330.19 404.17C329.95 404.58 329.19 404.71 328.35 404.74C329.008 404.937 329.597 405.314 330.05 405.83C330.126 405.938 330.179 406.06 330.205 406.189C330.23 406.318 330.229 406.451 330.2 406.58C330.09 407.12 329.8 407.29 329.58 407.34C329.326 407.355 329.071 407.318 328.832 407.23C328.592 407.142 328.374 407.006 328.19 406.83ZM326.74 404.74C327.67 405.83 328.92 407.01 329.45 406.88C329.5 406.88 329.64 406.88 329.71 406.49C329.725 406.421 329.724 406.349 329.709 406.28C329.693 406.211 329.663 406.146 329.62 406.09C329.21 405.47 327.73 405 326.74 404.74ZM329.4 403.33C329.257 403.226 329.086 403.167 328.91 403.16C328.079 403.248 327.298 403.598 326.68 404.16C328.09 404.3 329.55 404.24 329.75 403.89C329.81 403.78 329.68 403.59 329.59 403.48C329.534 403.421 329.47 403.371 329.4 403.33Z" fill="#407BFF"/>
<path opacity="0.2" d="M327.39 395.61L321.11 392.06L323.07 384.06L330.38 386.4L327.39 395.61Z" fill="black"/>
<path d="M314.65 410.71H308.04L306.15 402.21L304.43 394.42L312.16 393.24L313.48 402.49L314.65 410.71Z" fill="#EBB376"/>
<path d="M305.86 410.45C305.86 409.72 314.86 410.29 314.86 410.29C314.86 410.29 320.37 415.89 325.72 417.15C331.07 418.41 328.08 421.62 322.1 421.62H307.27C303 421.62 305.68 418 305.86 410.45Z" fill="#263238"/>
<path d="M319.53 412.58C318.237 412.419 316.982 412.037 315.82 411.45L315.74 411.39V411.34C315.72 411.278 315.72 411.212 315.74 411.15C315.74 411.07 316.53 408.98 317.74 408.47C317.922 408.386 318.119 408.342 318.32 408.342C318.52 408.342 318.718 408.386 318.9 408.47C319.31 408.67 319.5 408.92 319.49 409.23C319.49 409.7 318.82 410.17 318.09 410.56C318.764 410.438 319.458 410.515 320.09 410.78C320.205 410.843 320.307 410.929 320.39 411.032C320.472 411.135 320.533 411.253 320.57 411.38C320.644 411.549 320.662 411.736 320.622 411.916C320.583 412.095 320.487 412.258 320.35 412.38C320.108 412.541 319.818 412.611 319.53 412.58ZM316.64 411.3C317.96 411.85 319.64 412.35 320.02 412C320.02 412 320.17 411.88 320.08 411.53C320.063 411.463 320.032 411.401 319.989 411.347C319.946 411.294 319.892 411.25 319.83 411.22C319.18 410.84 317.65 411.07 316.64 411.3ZM318.24 408.83C318.116 408.833 317.993 408.86 317.88 408.91C317.177 409.372 316.639 410.044 316.34 410.83C317.67 410.33 318.95 409.63 318.97 409.23C318.97 409.1 318.78 408.99 318.66 408.93C318.53 408.864 318.386 408.83 318.24 408.83Z" fill="#407BFF"/>
<path opacity="0.2" d="M313.5 402.68L306.17 402.38L304.44 394.5L312.17 393.28L313.5 402.68Z" fill="black"/>
<path d="M282.42 255.14L298.65 252.54L313.36 249.54L317.36 273.54C317.36 273.54 338.07 303.54 343.09 324.18C348.11 344.82 329.28 392.7 329.28 392.7L320.63 388.87C320.63 388.87 326.63 342.82 326.49 337.29C326.4 333.69 314.59 317.09 306.33 305.9C306.09 308.71 308.77 336.72 308.77 336.72L314.6 398.12H303.7C266.22 281.73 282.42 255.14 282.42 255.14Z" fill="#263238"/>
<path opacity="0.6" d="M303.7 398.08H314.56L308.73 336.68C308.73 336.68 306.07 308.48 306.29 305.86C307.92 308.07 309.69 310.48 311.48 312.97C318.75 323.08 326.38 334.35 326.48 337.24C326.62 342.78 320.62 388.83 320.62 388.83L329.27 392.66C329.27 392.66 348.1 344.76 343.08 324.13C338.06 303.5 317.35 273.5 317.35 273.5L313.35 249.5L298.64 252.5L282.41 255.1C282.41 255.1 266.22 281.73 303.7 398.08Z" fill="white"/>
<path d="M320.14 384.96L332.91 389.36L330.06 393.74L319.57 389.99L320.14 384.96Z" fill="#407BFF"/>
<path d="M302.14 396.61L315.8 394.74L315.12 399.84L303.84 401.26L302.14 396.61Z" fill="#407BFF"/>
<path opacity="0.2" d="M306.29 305.86C307.92 308.07 309.69 310.48 311.48 312.97C308.62 298.15 305.25 283.72 305.25 283.72C304.823 291.116 305.171 298.537 306.29 305.86Z" fill="black"/>
<path d="M313.07 250.48L283.46 252.53C283.46 252.53 283.06 236.67 280.7 228.42C280.38 227.31 280.03 226.15 279.64 224.91C279.09 223.17 278.46 221.3 277.74 219.26C277.57 218.78 277.14 217.58 276.62 216.19C276.209 215.081 276.127 213.876 276.384 212.721C276.641 211.566 277.227 210.51 278.07 209.68C278.891 208.858 279.933 208.291 281.07 208.05C283.25 207.57 285.4 207.12 286.57 206.94C291.006 206.236 295.481 205.812 299.97 205.67C303.77 205.67 307.97 205.89 310.37 206.06L312.45 206.22C312.45 206.22 313.39 206.43 313.99 211.94C314.53 217.12 314.27 231.64 313.07 250.48Z" fill="#407BFF"/>
<path d="M299 212C291.53 210.65 289.43 207.33 289.43 207.33C294.43 203.07 290.87 195.07 290.87 195.07L299.87 197.22C299.594 198.468 299.41 199.735 299.32 201.01C298.97 206.5 301.45 206.68 301.45 206.68C302.82 209.69 299 212 299 212Z" fill="#EBB376"/>
<path opacity="0.2" d="M299.8 197.17C299.524 198.418 299.34 199.685 299.25 200.96C294.94 199.73 290.84 195.02 290.84 195.02L299.8 197.17Z" fill="black"/>
<path d="M299.14 171.52C306.99 172.23 309.14 176.66 308.99 184.81C308.8 194.99 305.91 201.98 296.28 198.93C283.2 194.8 286.09 170.35 299.14 171.52Z" fill="#EBB376"/>
<path d="M304 183.91C304.525 185.143 305.196 186.308 306 187.38C305.74 187.682 305.402 187.907 305.023 188.031C304.644 188.154 304.238 188.171 303.85 188.08L304 183.91Z" fill="#D58745"/>
<path d="M299.2 182.84C299.2 183.48 298.77 183.98 298.34 183.96C297.91 183.94 297.6 183.38 297.64 182.73C297.68 182.08 298.07 181.59 298.5 181.61C298.93 181.63 299.24 182.19 299.2 182.84Z" fill="#263238"/>
<path d="M298.31 181.63L299.76 181.17C299.76 181.17 299 182.31 298.31 181.63Z" fill="#263238"/>
<path d="M307.25 183.24C307.2 183.88 306.82 184.38 306.39 184.35C305.96 184.32 305.64 183.78 305.69 183.13C305.74 182.48 306.11 181.98 306.55 182.01C306.99 182.04 307.29 182.59 307.25 183.24Z" fill="#263238"/>
<path d="M306.36 182L307.81 181.54C307.81 181.54 307 182.71 306.36 182Z" fill="#263238"/>
<path d="M296.09 178.65C295.997 178.647 295.909 178.612 295.84 178.55C295.774 178.48 295.737 178.387 295.737 178.29C295.737 178.193 295.774 178.1 295.84 178.03C296.362 177.576 296.982 177.249 297.652 177.076C298.322 176.902 299.023 176.887 299.7 177.03C299.747 177.041 299.791 177.06 299.83 177.088C299.869 177.115 299.902 177.15 299.928 177.191C299.953 177.231 299.97 177.276 299.979 177.323C299.987 177.37 299.985 177.418 299.975 177.465C299.964 177.512 299.945 177.556 299.917 177.595C299.89 177.634 299.855 177.667 299.814 177.693C299.774 177.718 299.729 177.735 299.682 177.744C299.635 177.752 299.587 177.751 299.54 177.74C298.985 177.622 298.411 177.631 297.861 177.766C297.31 177.901 296.797 178.159 296.36 178.52C296.327 178.56 296.286 178.592 296.239 178.614C296.193 178.637 296.142 178.649 296.09 178.65Z" fill="#263238"/>
<path d="M308.42 178.88C308.337 178.878 308.256 178.85 308.19 178.8C307.828 178.456 307.391 178.2 306.915 178.051C306.438 177.902 305.934 177.864 305.44 177.94C305.347 177.962 305.25 177.947 305.168 177.898C305.086 177.85 305.026 177.772 305 177.68C304.975 177.589 304.988 177.491 305.035 177.409C305.081 177.326 305.159 177.266 305.25 177.24C305.855 177.134 306.477 177.169 307.067 177.343C307.656 177.516 308.198 177.823 308.65 178.24C308.687 178.27 308.718 178.307 308.74 178.349C308.763 178.391 308.777 178.437 308.782 178.485C308.786 178.532 308.781 178.58 308.767 178.625C308.753 178.671 308.73 178.713 308.7 178.75C308.666 178.792 308.624 178.825 308.575 178.848C308.526 178.87 308.473 178.881 308.42 178.88Z" fill="#263238"/>
<path d="M289.36 184C289.36 184 293.61 177.87 293.5 172.84C293.5 172.84 309.64 167.84 308.99 183.75C308.99 183.75 311.77 169.86 298.3 168.33C284.83 166.8 283.1 186.57 289.55 193.08C289.55 193.07 286.72 187.82 289.36 184Z" fill="#263238"/>
<path d="M290.49 185.76C290.494 185.307 290.408 184.858 290.239 184.437C290.069 184.017 289.818 183.635 289.501 183.312C289.183 182.989 288.805 182.731 288.388 182.554C287.971 182.377 287.523 182.284 287.07 182.28C284.61 182.33 283 187.22 288.95 188.97C289.8 189.22 290.37 188.41 290.49 185.76Z" fill="#EBB376"/>
<path d="M303.09 191.74C302.131 191.787 301.183 191.52 300.391 190.978C299.598 190.436 299.004 189.651 298.7 188.74C298.686 188.696 298.681 188.65 298.685 188.604C298.689 188.558 298.702 188.513 298.723 188.472C298.745 188.431 298.774 188.395 298.809 188.365C298.845 188.336 298.886 188.314 298.93 188.3C298.975 188.286 299.023 188.281 299.07 188.286C299.117 188.29 299.163 188.304 299.205 188.327C299.247 188.349 299.284 188.379 299.314 188.416C299.344 188.452 299.366 188.495 299.38 188.54C299.646 189.331 300.17 190.01 300.869 190.467C301.567 190.924 302.399 191.133 303.23 191.06C303.324 191.054 303.416 191.086 303.487 191.148C303.558 191.209 303.602 191.296 303.61 191.39C303.615 191.484 303.584 191.576 303.522 191.647C303.461 191.718 303.374 191.762 303.28 191.77L303.09 191.74Z" fill="#263238"/>
<path d="M308.87 181.53C308.794 181.529 308.72 181.505 308.659 181.46C308.598 181.415 308.553 181.352 308.53 181.28C305.47 171.28 293.75 172.84 293.64 172.86C293.594 172.867 293.547 172.864 293.502 172.852C293.457 172.841 293.415 172.821 293.378 172.793C293.341 172.765 293.309 172.73 293.286 172.69C293.262 172.65 293.246 172.606 293.24 172.56C293.233 172.514 293.236 172.467 293.247 172.422C293.259 172.377 293.279 172.335 293.307 172.298C293.335 172.261 293.37 172.229 293.41 172.206C293.45 172.182 293.494 172.167 293.54 172.16C293.66 172.16 305.97 170.51 309.21 181.07C309.224 181.115 309.228 181.162 309.224 181.208C309.219 181.255 309.205 181.3 309.183 181.341C309.16 181.382 309.13 181.418 309.093 181.447C309.057 181.476 309.015 181.497 308.97 181.51L308.87 181.53Z" fill="#263238"/>
<path d="M329.2 198.42C329.2 198.42 333.33 198.35 333.47 199.07C333.61 199.79 333.34 205.84 332.79 206.69C332.19 207.458 331.502 208.153 330.74 208.76L331.14 219.48L328.68 220.34L326.45 210.53C326.45 210.53 323.92 208.06 324.66 204.93C325.4 201.8 329.2 198.42 329.2 198.42Z" fill="#EBB376"/>
<path opacity="0.1" d="M329.2 198.42C329.2 198.42 333.33 198.35 333.47 199.07C333.61 199.79 333.34 205.84 332.79 206.69C332.19 207.458 331.502 208.153 330.74 208.76L331.14 219.48L328.68 220.34L326.45 210.53C326.45 210.53 323.92 208.06 324.66 204.93C325.4 201.8 329.2 198.42 329.2 198.42Z" fill="black"/>
<path d="M322.19 203.7C322.187 203.79 322.203 203.879 322.237 203.962C322.271 204.045 322.322 204.12 322.387 204.181C322.453 204.243 322.531 204.29 322.615 204.319C322.7 204.348 322.791 204.359 322.88 204.35L329.88 203.81C330.075 203.791 330.257 203.703 330.392 203.562C330.528 203.421 330.609 203.236 330.62 203.04L331.12 189.04C331.125 188.944 331.111 188.848 331.079 188.758C331.046 188.668 330.995 188.586 330.93 188.516C330.865 188.445 330.786 188.389 330.698 188.351C330.61 188.312 330.516 188.291 330.42 188.29L323.42 188.83C323.217 188.87 323.033 188.978 322.899 189.136C322.764 189.294 322.687 189.493 322.68 189.7L322.19 203.7Z" fill="#263238"/>
<path opacity="0.5" d="M323.46 189.56L323 203.68C322.987 203.764 322.993 203.849 323.019 203.93C323.045 204.01 323.089 204.084 323.148 204.144C323.208 204.205 323.28 204.25 323.361 204.277C323.441 204.304 323.526 204.312 323.61 204.3L329.56 203.84C329.96 203.84 330.68 203.53 330.69 203.13L331.19 188.97C331.19 188.57 330.5 188.31 330.1 188.34L324.1 188.8C323.916 188.82 323.747 188.91 323.628 189.052C323.509 189.193 323.449 189.375 323.46 189.56Z" fill="white"/>
<path d="M315.05 214.32L317.72 208.09C317.72 208.09 318.59 199.74 319.01 198.84C319.43 197.94 326.23 198.28 327.01 198.23C327.79 198.18 327.61 206.51 326.9 207.39C326.19 208.27 323.41 208.97 323.41 208.97L319.14 217.25L315.05 214.32Z" fill="#EBB376"/>
<path d="M307.53 210.94C306.81 213.8 304.04 216 298.31 215.94C295.061 215.885 291.911 214.807 289.31 212.86C287.239 211.338 285.446 209.471 284.01 207.34C284.84 207.19 285.68 207.06 286.52 206.93C290.955 206.226 295.431 205.802 299.92 205.66C302.29 205.66 304.8 205.73 306.92 205.84C307.663 207.431 307.877 209.219 307.53 210.94Z" fill="#EBB376"/>
<path d="M283.38 250.29L282.14 255.71L314.1 254.03L313.18 248.68L283.38 250.29Z" fill="#263238"/>
<path d="M301.54 254.92C301.244 254.922 300.958 254.813 300.738 254.615C300.518 254.417 300.38 254.144 300.35 253.85L299.98 250.39C299.951 250.062 300.051 249.735 300.26 249.48C300.364 249.356 300.492 249.255 300.636 249.183C300.781 249.111 300.939 249.069 301.1 249.06L305.76 248.74C306.073 248.718 306.383 248.82 306.623 249.023C306.862 249.227 307.012 249.517 307.04 249.83L307.36 253.24C307.389 253.56 307.292 253.88 307.09 254.13C306.987 254.253 306.861 254.353 306.718 254.425C306.575 254.497 306.419 254.54 306.26 254.55L301.64 254.92H301.54ZM300.98 250.28L301.34 253.74C301.347 253.792 301.374 253.84 301.415 253.873C301.455 253.906 301.507 253.923 301.56 253.92L306.18 253.56C306.207 253.557 306.234 253.548 306.258 253.534C306.282 253.52 306.303 253.502 306.32 253.48C306.355 253.438 306.373 253.385 306.37 253.33L306.04 249.92C306.039 249.894 306.032 249.869 306.021 249.845C306.009 249.822 305.993 249.802 305.974 249.785C305.954 249.768 305.931 249.755 305.906 249.747C305.882 249.74 305.856 249.737 305.83 249.74L301.17 250.06C301.141 250.059 301.112 250.065 301.086 250.077C301.06 250.089 301.037 250.107 301.02 250.13C301.01 250.154 301.004 250.179 301.004 250.205C301.004 250.231 301.01 250.256 301.02 250.28H300.98Z" fill="white"/>
<path d="M306 252H304.28C304.147 252 304.02 251.947 303.926 251.854C303.832 251.76 303.78 251.633 303.78 251.5C303.782 251.368 303.836 251.242 303.929 251.149C304.022 251.056 304.148 251.003 304.28 251H306C306.132 251.003 306.257 251.056 306.35 251.149C306.444 251.242 306.497 251.368 306.5 251.5C306.5 251.633 306.447 251.76 306.353 251.854C306.26 251.947 306.132 252 306 252Z" fill="white"/>
<path opacity="0.2" d="M287.79 227.35C284.96 228.35 281.79 226.6 279.64 224.91C279.09 223.17 278.46 221.3 277.74 219.26C277.57 218.78 277.14 217.58 276.62 216.19C276.209 215.081 276.127 213.876 276.384 212.721C276.641 211.566 277.227 210.51 278.07 209.68C283.51 214.81 291.57 226.06 287.79 227.35Z" fill="black"/>
<path d="M278 209C278.567 208.543 279.223 208.207 279.925 208.014C280.628 207.821 281.363 207.775 282.084 207.878C282.805 207.981 283.498 208.231 284.118 208.614C284.738 208.996 285.274 209.502 285.69 210.1C290.08 216.39 297.45 226.85 298.34 227.36C299.61 228.1 309.19 219.27 317.73 208.07L322.96 210.07C322.96 210.07 309.45 237.85 299.86 237.97C292.67 238.06 281.86 223.48 276.95 216.15C276.193 215.045 275.88 213.695 276.075 212.369C276.269 211.044 276.957 209.841 278 209Z" fill="#EBB376"/>
<path opacity="0.2" d="M287.79 260.15C287.79 260.15 285.35 266.78 279.32 269.15V271.53C279.32 271.53 288.16 267.77 289.4 261.53L287.79 260.15Z" fill="black"/>
<path opacity="0.2" d="M280.93 295.07L289.4 293.48L291.42 310.5L283.31 311.68L282.14 300.6L289.46 299.56L289.04 295.36L288.92 299.09L280.69 300.41L280.93 295.07Z" fill="black"/>
</g>
<defs>
<filter id="filter0_d_79_1254" x="-4" y="0" width="508" height="508" filterUnits="userSpaceOnUse" color-interpolation-filters="sRGB">
<feFlood flood-opacity="0" result="BackgroundImageFix"/>
<feColorMatrix in="SourceAlpha" type="matrix" values="0 0 0 0 0 0 0 0 0 0 0 0 0 0 0 0 0 0 127 0" result="hardAlpha"/>
<feOffset dy="4"/>
<feGaussianBlur stdDeviation="2"/>
<feComposite in2="hardAlpha" operator="out"/>
<feColorMatrix type="matrix" values="0 0 0 0 0 0 0 0 0 0 0 0 0 0 0 0 0 0 0.25 0"/>
<feBlend mode="normal" in2="BackgroundImageFix" result="effect1_dropShadow_79_1254"/>
<feBlend mode="normal" in="SourceGraphic" in2="effect1_dropShadow_79_1254" result="shape"/>
</filter>
</defs>
</svg>
